<svg xmlns="http://www.w3.org/2000/svg" viewBox="0 0 32 32">
    <defs>
        <linearGradient id="gradient" x1="0%" y1="0%" x2="100%" y2="0%">
            <stop offset="0%" stop-color="#0538FF" />
            <stop offset="100%" stop-color="#70E3F5" />
        </linearGradient>
    </defs>
    <title>9-Arrow Up</title>
    <g id="_9-Arrow_Up" data-name="9-Arrow Up">
        <path d="M25,0H7A7,7,0,0,0,0,7V25a7,7,0,0,0,7,7H25a7,7,0,0,0,7-7V7A7,7,0,0,0,25,0Zm5,25a5,5,0,0,1-5,5H7a5,5,0,0,1-5-5V7A5,5,0,0,1,7,2H25a5,5,0,0,1,5,5Z" fill="url(#gradient)" />
        <path d="M15.29,5.29l-7,7,1.41,1.41L15,8.41V27h2V8.41l5.29,5.29,1.41-1.41-7-7A1,1,0,0,0,15.29,5.29Z" fill="url(#gradient)" />
    </g>
</svg>
