<svg width="24" height="25" viewBox="0 0 24 25" fill="none" xmlns="http://www.w3.org/2000/svg">
<path d="M12.7408 18.9422L15.3055 16.3775C15.6481 16.0349 16.1871 15.9872 16.5846 16.2644L20.1353 18.7409C20.6459 19.097 20.7106 19.828 20.2704 20.2682L19.8841 20.6544C19.1739 21.3647 18.1547 21.6724 17.1986 21.3646C15.1336 20.6999 11.3767 19.1565 8.26175 16.0415C5.14678 12.9266 3.6034 9.16966 2.93871 7.10471C2.63093 6.14857 2.93859 5.12942 3.64885 4.41916L4.03512 4.03289C4.47529 3.59272 5.20634 3.65736 5.56244 4.16795L8.03888 7.71868C8.3161 8.11615 8.26844 8.65518 7.92578 8.99784L5.36113 11.5625" stroke="#F0C73B" stroke-linecap="round"/>
</svg>
